<svg xmlns="http://www.w3.org/2000/svg" viewBox="0 0 500 500">

<path style="fill: oklch(0.967 0.001 286.375); stroke-width: 19;" d="M 422.905 114.948 C 414.519 114.948 405.875 123.93 398.465 127.524 C 374.596 139.101 357.239 156.877 350.663 183.393 C 348.476 192.211 331.568 204.009 340.643 214.769 C 351.238 227.329 364.82 238.859 376.993 249.511 C 379.65 251.836 384.784 261.076 389.52 259.665 C 391.819 258.981 398.023 237.418 399.585 234.096 C 399.912 233.4 401.671 226.577 402.253 226.723 C 415.282 229.981 424.363 257.232 439.419 252.65 C 440.786 252.234 442.055 239.241 442.924 237.37 C 451.352 219.296 438.367 183.429 428.672 165.387 C 422.971 154.779 421.43 145.645 421.43 133.541 C 421.43 123.795 426.418 118.854 420.32 112.754"></path>
<path fill="oklch(0.65 0.18 132)" opacity="1.000000" stroke="none" d="M 109.7 469.874 C 85.949 469.877 62.612 469.907 39.275 469.875 C 18.039 469.847 4.358 455.954 4.371 434.785 C 4.408 367.537 4.343 300.288 4.372 233.04 C 4.38 216.518 14.271 203.667 29.636 199.867 C 30.307 199.702 30.973 199.501 31.653 199.408 C 38.276 198.503 38.285 198.508 38.291 191.954 C 38.306 176.765 37.955 161.565 38.387 146.387 C 39.732 99.119 60.773 63.209 102.44 40.737 C 166.243 6.301 246.579 37.928 270.889 106.222 C 275.702 119.744 278.127 133.629 278.115 147.964 C 278.102 163.706 278.165 179.447 278.043 195.189 C 278.019 198.2 278.926 199.23 282.024 199.355 C 297.02 199.955 310.154 212.586 311.289 227.595 C 312.614 245.101 311.785 262.649 311.845 280.177 C 311.987 321.465 311.936 362.753 311.975 404.041 C 311.976 405.398 312.113 406.755 312.218 408.693 C 317.436 407.372 321.671 404.895 325.674 402.096 C 345.292 388.375 351.985 369.045 350.123 345.88 C 348.263 322.735 340.627 300.895 335.412 278.504 C 331.531 261.842 328.152 244.997 328.507 227.822 C 329.256 191.522 340.255 159.25 367.35 133.725 C 383.768 118.256 403.309 108.35 424.579 101.473 C 432.468 98.922 440.521 97.048 448.576 95.165 C 449.852 94.866 451.219 94.326 452.901 95.522 C 451.119 98.861 449.363 102.234 447.531 105.574 C 441.474 116.644 436.254 128.036 434.547 140.692 C 433.354 149.489 433.494 158.275 435.251 167.02 C 439.005 185.797 447.283 202.764 456.282 219.423 C 468.006 241.147 480.75 262.344 488.838 285.877 C 494.257 301.638 498.102 317.74 498.301 334.361 C 498.616 360.35 491.357 384.213 475.506 405.109 C 449.677 439.164 414.072 456.613 373.192 464.917 C 354.747 468.663 336.076 469.961 317.244 469.923 C 248.201 469.786 179.157 469.871 109.7 469.874 M 266.722 451.325 C 270.864 451.323 275.007 451.378 279.146 451.31 C 287.881 451.169 293.367 445.75 293.372 437.002 C 293.404 368.524 293.383 300.045 293.402 231.566 C 293.403 228.717 292.738 226.135 291.196 223.734 C 288.163 219.013 283.702 217.824 278.364 217.828 C 197.873 217.871 117.384 217.822 36.894 217.801 C 28.387 217.799 22.967 223.162 22.965 231.791 C 22.939 300.407 22.961 369.025 22.929 437.641 C 22.928 440.671 23.712 443.361 25.429 445.797 C 28.853 450.655 33.825 451.379 39.334 451.375 C 114.854 451.306 190.373 451.326 266.722 451.325 M 424.264 260.781 C 417.336 254.575 410.417 248.37 402.857 241.596 C 400.146 255.26 398.886 268.205 395.536 281.749 C 379.281 266.71 363.767 252.355 347.394 237.207 C 347.594 244.013 348.115 249.439 349.082 254.831 C 352.177 272.084 356.975 288.928 361.419 305.851 C 366.597 325.566 370.172 345.376 367.726 365.91 C 365.585 383.879 357.513 398.694 344.35 410.763 C 336.016 418.407 326.253 423.829 315.405 427.205 C 313.858 427.686 311.926 427.975 311.993 430.183 C 312.204 437.198 311.667 444.115 309.028 450.946 C 310.293 451.144 310.959 451.332 311.626 451.339 C 329.58 451.538 347.48 451.035 365.226 447.875 C 394.009 442.749 420.469 432.346 442.866 413.133 C 467.592 391.916 481.066 365.379 479.806 332.187 C 479.093 313.27 473.658 295.564 466.274 278.328 C 462.554 269.622 458.386 261.149 453.108 252.271 C 451.194 262.364 449.454 271.58 447.507 281.872 C 439.336 274.453 432.02 267.807 424.264 260.781 M 98.058 181.742 C 98.081 185.881 98.307 190.032 98.069 194.155 C 97.845 198.055 99.157 199.382 103.211 199.366 C 139.913 199.225 176.615 199.242 213.316 199.351 C 216.836 199.361 218.188 198.481 218.146 194.742 C 217.955 177.498 218.24 160.245 217.899 143.006 C 217.713 133.514 215.126 124.392 210.027 116.332 C 197.6 96.688 179.542 87.009 156.322 87.084 C 125.763 87.185 99.262 112.766 98.326 143.251 C 97.941 155.796 98.129 168.359 98.058 181.742 M 125.513 75.65 C 157.392 61.076 191.611 70.234 213.006 90.882 C 229.699 106.992 236.602 127.051 236.681 149.83 C 236.733 164.878 236.784 179.928 236.673 194.976 C 236.65 198.142 237.514 199.511 240.885 199.338 C 245.429 199.105 250.006 199.077 254.547 199.346 C 258.249 199.565 259.622 198.48 259.572 194.529 C 259.366 177.964 259.398 161.394 259.516 144.827 C 259.561 138.428 258.743 132.144 257.459 125.943 C 245.861 69.965 189.691 34.58 134.135 48.164 C 93.067 58.204 61.354 93.168 57.338 135.369 C 55.424 155.488 56.879 175.925 56.778 196.219 C 56.767 198.58 57.937 199.322 60.132 199.292 C 65.102 199.225 70.085 199.069 75.039 199.356 C 78.752 199.571 79.751 198.184 79.722 194.609 C 79.584 178.32 79.624 162.027 79.762 145.736 C 79.798 141.617 80.073 137.436 80.842 133.399 C 85.896 106.88 100.845 87.862 125.513 75.65 M 416.185 137.991 C 417.146 133.185 418.099 128.378 419.11 123.338 C 415.588 123.813 413.061 125.592 410.352 126.86 C 374.674 143.521 354.076 171.454 348.035 210.273 C 347.75 212.104 348.165 213.338 349.565 214.622 C 359.738 223.953 369.819 233.385 379.963 242.747 C 381.029 243.732 381.924 245.115 384.13 245.108 C 386.463 232.528 387.839 219.714 390.944 205.884 C 406.028 219.597 420.411 232.669 435.11 246.033 C 437.133 241.923 436.917 238.111 437.861 234.589 C 439.361 229.001 438.45 224.226 435.624 218.94 C 422.284 193.936 412.232 167.983 416.185 137.991 Z" style="stroke-width: 19;"></path>
<path fill="oklch(0.967 0.001 286.375)" opacity="1.000000" stroke="none" d="M 180.492 355.915 C 183.394 368.75 186.175 381.255 189.109 393.725 C 189.846 396.857 188.985 397.968 185.746 397.954 C 167.52 397.873 149.294 397.875 131.068 397.965 C 127.538 397.982 126.439 396.938 127.317 393.287 C 131.501 375.873 135.385 358.386 139.601 340.981 C 140.534 337.129 139.847 334.804 136.611 332.178 C 121.619 320.013 119.092 297.971 130.736 284.05 C 143.977 268.216 165.223 265.948 180.876 278.696 C 197.28 292.055 196.605 320.178 179.425 332.626 C 176.6 334.673 175.824 336.551 176.782 339.878 C 178.268 345.032 179.24 350.334 180.492 355.915 Z" style="stroke-width: 19;"></path>

</svg>